<svg width="17" height="16" viewBox="0 0 17 16" fill="none" xmlns="http://www.w3.org/2000/svg">
<path d="M1.1162 1.54838C0.973746 1.54838 0.858134 1.43302 0.858134 1.29031V0.258063C0.858134 0.115354 0.973746 0 1.1162 0H16.6C16.7424 0 16.858 0.115354 16.858 0.258063V1.29031C16.858 1.43302 16.7424 1.54838 16.6 1.54838H16.3419V7.74189H16.6C16.7424 7.74189 16.858 7.85724 16.858 7.99995V9.54833C16.858 9.69104 16.7424 9.80639 16.6 9.80639H1.1162C0.973746 9.80639 0.858134 9.69104 0.858134 9.54833V7.99995C0.858134 7.85724 0.973746 7.74189 1.1162 7.74189H1.37426V1.54838H1.1162ZM16.3419 0.516126H1.37426V1.03225H16.3419V0.516126ZM6.79358 7.74189V6.45157C6.79358 6.30886 6.90919 6.19351 7.05164 6.19351H10.6645C10.807 6.19351 10.9226 6.30886 10.9226 6.45157V7.74189H14.2774V2.68747L13.8903 2.30037L13.4276 2.76308L13.0627 2.39818L13.5254 1.93547L13.1383 1.54838H4.57785L4.19076 1.93547L4.65347 2.39818L4.28856 2.76308L3.82586 2.30037L3.43876 2.68747V7.74189H6.79358ZM7.30971 7.74189H10.4065V6.70963H7.30971V7.74189ZM14.2774 1.95767V1.54838H13.8681L14.2774 1.95767ZM14.7935 3.76411L15.7189 2.83869L14.7935 1.91328V3.76411ZM15.8258 3.46166L14.9004 4.38707L15.8258 5.31248V3.46166ZM14.7935 5.01003V6.86086L15.7189 5.93545L14.7935 5.01003ZM3.43876 1.95767L3.84805 1.54838H3.43876V1.95767ZM2.92264 5.01003L1.99722 5.93545L2.92264 6.86086V5.01003ZM1.89039 5.31248L2.8158 4.38707L1.89039 3.46166V5.31248ZM2.92264 3.76411V1.91328L1.99722 2.83869L2.92264 3.76411ZM15.1584 1.54838L15.8258 2.21573V1.54838H15.1584ZM15.8258 6.55841L14.7935 7.59066V7.74189H15.8258V6.55841ZM1.37426 9.29026H16.3419V8.25801H1.37426V9.29026ZM2.92264 7.74189V7.59066L1.89039 6.55841V7.74189H2.92264ZM1.89039 2.21573L2.55774 1.54838H1.89039V2.21573Z" fill="white" fill-opacity="0.6"/>
<path d="M6.74744 6.05231L4.68185 2.95579L4.25243 3.24224L6.31802 6.33876L6.74744 6.05231Z" fill="white" fill-opacity="0.6"/>
<path d="M7.45227 3.91122L5.12977 2.36196L4.84332 2.79138L7.16582 4.34064L7.45227 3.91122Z" fill="white" fill-opacity="0.6"/>
<path d="M13.4592 3.23828L13.0298 2.95183L10.9642 6.04835L11.3936 6.3348L13.4592 3.23828Z" fill="white" fill-opacity="0.6"/>
<path d="M12.8707 2.7962L12.5843 2.36679L10.2618 3.91605L10.5482 4.34547L12.8707 2.7962Z" fill="white" fill-opacity="0.6"/>
<path d="M8.85814 5.16125C8.57309 5.16125 8.34202 4.93017 8.34202 4.64512C8.34202 4.36008 8.57309 4.129 8.85814 4.129C9.14319 4.129 9.37427 4.36008 9.37427 4.64512C9.37427 4.93017 9.14319 5.16125 8.85814 5.16125Z" fill="white" fill-opacity="0.6"/>
<path d="M8.47088 5.41944H9.24507L9.94184 4.49042L10.3547 4.80009L9.58055 5.83234C9.53203 5.89738 9.45539 5.93557 9.3741 5.93557H8.34185C8.26056 5.93557 8.18417 5.89738 8.1354 5.83234L7.36121 4.80009L7.77411 4.49042L8.47088 5.41944Z" fill="white" fill-opacity="0.6"/>
<path d="M15.8258 12.9032C15.8258 13.3301 15.4785 13.6774 15.0516 13.6774C14.6248 13.6774 14.2774 13.3301 14.2774 12.9032C14.2774 12.4764 14.6248 12.1291 15.0516 12.1291C15.4785 12.1291 15.8258 12.4764 15.8258 12.9032ZM14.7936 12.9032C14.7936 13.0457 14.9094 13.1613 15.0516 13.1613C15.1938 13.1613 15.3097 13.0457 15.3097 12.9032C15.3097 12.7608 15.1938 12.6452 15.0516 12.6452C14.9094 12.6452 14.7936 12.7608 14.7936 12.9032Z" fill="white" fill-opacity="0.6"/>
<path d="M13.7049 12.7419L14.6594 13.9355H15.444L16.3988 12.7419L16.8019 13.0645L15.8259 14.2841V15.7419C15.8259 15.8846 15.7103 16 15.5678 16H14.5356C14.3931 16 14.2775 15.8846 14.2775 15.7419V14.2841L13.3018 13.0645L13.7049 12.7419ZM15.3098 15.4839V14.4516H14.7936V15.4839H15.3098Z" fill="white" fill-opacity="0.6"/>
<path d="M11.1806 13.6774C10.7538 13.6774 10.4065 13.3301 10.4065 12.9032C10.4065 12.4764 10.7538 12.1291 11.1806 12.1291C11.6075 12.1291 11.9548 12.4764 11.9548 12.9032C11.9548 13.3301 11.6075 13.6774 11.1806 13.6774ZM11.1806 12.6452C11.0385 12.6452 10.9226 12.7608 10.9226 12.9032C10.9226 13.0457 11.0385 13.1613 11.1806 13.1613C11.3228 13.1613 11.4387 13.0457 11.4387 12.9032C11.4387 12.7608 11.3228 12.6452 11.1806 12.6452Z" fill="white" fill-opacity="0.6"/>
<path d="M9.8339 12.7419L10.7885 13.9355H11.573L12.5278 12.7419L12.9309 13.0645L11.9549 14.2841V15.7419C11.9549 15.8846 11.8393 16 11.6969 16H10.6646C10.5221 16 10.4065 15.8846 10.4065 15.7419V14.2841L9.4308 13.0645L9.8339 12.7419ZM11.4388 15.4839V14.4516H10.9227V15.4839H11.4388Z" fill="white" fill-opacity="0.6"/>
<path d="M7.30969 12.9032C7.30969 13.3301 6.96234 13.6774 6.5355 13.6774C6.10867 13.6774 5.76132 13.3301 5.76132 12.9032C5.76132 12.4764 6.10867 12.1291 6.5355 12.1291C6.96234 12.1291 7.30969 12.4764 7.30969 12.9032ZM6.27744 12.9032C6.27744 13.0457 6.39331 13.1613 6.5355 13.1613C6.6777 13.1613 6.79357 13.0457 6.79357 12.9032C6.79357 12.7608 6.6777 12.6452 6.5355 12.6452C6.39331 12.6452 6.27744 12.7608 6.27744 12.9032Z" fill="white" fill-opacity="0.6"/>
<path d="M5.18875 12.7419L6.14333 13.9355H6.92784L7.88267 12.7419L8.28577 13.0645L7.30977 14.2841V15.7419C7.30977 15.8846 7.19416 16 7.05171 16H6.01946C5.87701 16 5.7614 15.8846 5.7614 15.7419V14.2841L4.78566 13.0645L5.18875 12.7419ZM6.79365 15.4839V14.4516H6.27752V15.4839H6.79365Z" fill="white" fill-opacity="0.6"/>
<path d="M2.66465 13.6774C2.23782 13.6774 1.89047 13.3301 1.89047 12.9032C1.89047 12.4764 2.23782 12.1291 2.66465 12.1291C3.09149 12.1291 3.43884 12.4764 3.43884 12.9032C3.43884 13.3301 3.09149 13.6774 2.66465 13.6774ZM2.66465 12.6452C2.52246 12.6452 2.40659 12.7608 2.40659 12.9032C2.40659 13.0457 2.52246 13.1613 2.66465 13.1613C2.80685 13.1613 2.92272 13.0457 2.92272 12.9032C2.92272 12.7608 2.80685 12.6452 2.66465 12.6452Z" fill="white" fill-opacity="0.6"/>
<path d="M1.3179 12.7419L2.27248 13.9355H3.05699L4.01182 12.7419L4.41492 13.0645L3.43892 14.2841V15.7419C3.43892 15.8846 3.32331 16 3.18086 16H2.14861C2.00616 16 1.89055 15.8846 1.89055 15.7419V14.2841L0.91481 13.0645L1.3179 12.7419ZM2.9228 15.4839V14.4516H2.40667V15.4839H2.9228Z" fill="white" fill-opacity="0.6"/>
<path d="M3.95492 11.0968C3.95492 10.6699 4.30227 10.3226 4.72911 10.3226C5.15594 10.3226 5.5033 10.6699 5.5033 11.0968C5.5033 11.5236 5.15594 11.8709 4.72911 11.8709C4.30227 11.8709 3.95492 11.5236 3.95492 11.0968ZM4.98717 11.0968C4.98717 10.9543 4.8713 10.8387 4.72911 10.8387C4.58691 10.8387 4.47104 10.9543 4.47104 11.0968C4.47104 11.2392 4.58691 11.3548 4.72911 11.3548C4.8713 11.3548 4.98717 11.2392 4.98717 11.0968Z" fill="white" fill-opacity="0.6"/>
<path d="M6.47913 11.258L5.44687 12.5483C5.39784 12.6094 5.32378 12.6451 5.24533 12.6451H4.21308C4.13463 12.6451 4.06056 12.6094 4.01153 12.5483L2.97928 11.258L3.38237 10.9354L4.33695 12.1289H5.12146L6.07629 10.9354L6.47913 11.258Z" fill="white" fill-opacity="0.6"/>
<path d="M8.08382 11.0968C8.08382 10.6699 8.43118 10.3226 8.85801 10.3226C9.28485 10.3226 9.6322 10.6699 9.6322 11.0968C9.6322 11.5236 9.28485 11.8709 8.85801 11.8709C8.43118 11.8709 8.08382 11.5236 8.08382 11.0968ZM9.11608 11.0968C9.11608 10.9543 9.00021 10.8387 8.85801 10.8387C8.71582 10.8387 8.59995 10.9543 8.59995 11.0968C8.59995 11.2392 8.71582 11.3548 8.85801 11.3548C9.00021 11.3548 9.11608 11.2392 9.11608 11.0968Z" fill="white" fill-opacity="0.6"/>
<path d="M7.10817 11.258L7.51126 10.9354L8.46584 12.1289H9.25035L10.2052 10.9354L10.6083 11.258L9.57602 12.5483C9.52673 12.6094 9.45267 12.6451 9.37422 12.6451H8.34196C8.26351 12.6451 8.18945 12.6094 8.14042 12.5483L7.10817 11.258Z" fill="white" fill-opacity="0.6"/>
<path d="M12.2129 11.0968C12.2129 10.6699 12.5602 10.3226 12.987 10.3226C13.4139 10.3226 13.7612 10.6699 13.7612 11.0968C13.7612 11.5236 13.4139 11.8709 12.987 11.8709C12.5602 11.8709 12.2129 11.5236 12.2129 11.0968ZM13.2451 11.0968C13.2451 10.9543 13.1292 10.8387 12.987 10.8387C12.8448 10.8387 12.729 10.9543 12.729 11.0968C12.729 11.2392 12.8448 11.3548 12.987 11.3548C13.1292 11.3548 13.2451 11.2392 13.2451 11.0968Z" fill="white" fill-opacity="0.6"/>
<path d="M14.7371 11.258L13.7048 12.5483C13.6558 12.6094 13.5817 12.6451 13.5033 12.6451H12.471C12.3926 12.6451 12.3185 12.6094 12.2695 12.5483L11.2372 11.258L11.6403 10.9354L12.5949 12.1289H13.3794L14.3342 10.9354L14.7371 11.258Z" fill="white" fill-opacity="0.6"/>
</svg>
