<svg width="16" height="16" viewBox="0 0 16 16" fill="none" xmlns="http://www.w3.org/2000/svg">
<path d="M5.83766 2.42426C6.41248 2.2665 7.00796 2.18653 7.60759 2.18653C8.91668 2.18653 10.1843 2.56585 11.2735 3.28349C11.3132 3.30968 11.3579 3.32218 11.4022 3.32218C11.4784 3.32218 11.5531 3.28508 11.5982 3.21671C11.6694 3.10861 11.6395 2.96326 11.5314 2.89204C10.3654 2.12381 9.00862 1.71774 7.60759 1.71774C6.96608 1.71774 6.32882 1.80337 5.71359 1.97222C5.58878 2.00647 5.51534 2.13544 5.54962 2.26025C5.58387 2.38507 5.71253 2.45854 5.83766 2.42426Z" fill="white" fill-opacity="0.6"/>
<path d="M14.4626 7.98134C14.3337 7.99325 14.2388 8.10741 14.2508 8.23628C14.2701 8.4455 14.2799 8.65491 14.2799 8.85873C14.2799 9.50684 14.1866 10.1335 14.0135 10.7265H12.3887C12.2593 10.7265 12.1543 10.8314 12.1543 10.9608C12.1543 11.0903 12.2593 11.1952 12.3887 11.1952H13.8573C13.6689 11.6977 13.4216 12.1716 13.1237 12.6084H11.1706C10.9467 12.6084 10.7645 12.4263 10.7645 12.2024C10.7645 12.003 10.6024 11.8408 10.4029 11.8408H10.1474C9.9694 11.8408 9.82459 11.696 9.82459 11.518C9.82459 11.34 9.9694 11.1952 10.1474 11.1952H11.3899C11.5194 11.1952 11.6243 11.0903 11.6243 10.9608C11.6243 10.8314 11.5194 10.7265 11.3899 10.7265H10.1474C9.7109 10.7265 9.35583 11.0816 9.35583 11.518C9.35583 11.9544 9.7109 12.3095 10.1474 12.3095H10.3023C10.3553 12.7415 10.7245 13.0772 11.1706 13.0772H12.7731C11.5486 14.5739 9.68784 15.531 7.60765 15.531C6.47716 15.531 5.41167 15.248 4.47765 14.7498H5.40901C5.93168 14.7498 6.36325 14.3524 6.41756 13.8439H7.22489C7.66602 13.8439 8.02493 13.485 8.02493 13.0439C8.02493 12.6027 7.66605 12.2438 7.22489 12.2438H6.71038C6.58091 12.2438 6.476 12.3487 6.476 12.4782C6.476 12.6076 6.58091 12.7125 6.71038 12.7125H7.22489C7.40755 12.7125 7.55618 12.8612 7.55618 13.0439C7.55618 13.2266 7.40755 13.3752 7.22489 13.3752H6.31481C6.11618 13.3752 5.95459 13.5368 5.95459 13.7354C5.95459 14.0362 5.70983 14.281 5.40901 14.281H3.72392C3.12132 13.8481 2.59337 13.3176 2.16377 12.7125H2.40899C2.53846 12.7125 2.64337 12.6076 2.64337 12.4782C2.64337 12.3487 2.53846 12.2438 2.40899 12.2438H1.85998C1.28616 11.2732 0.951249 10.1456 0.936405 8.9422H1.10422C1.48382 8.9422 1.8333 8.73485 2.01692 8.40732H2.75484C3.17554 8.40732 3.51779 8.06506 3.51779 7.64437C3.51779 7.22367 3.17554 6.88142 2.75484 6.88142H1.23307C1.32929 6.57091 1.44851 6.26772 1.58985 5.97374H4.49553C4.95382 5.97374 5.3267 5.60086 5.3267 5.14257C5.3267 4.68425 4.95382 4.31137 4.49553 4.31137H4.10565C3.97618 4.31137 3.87127 4.41631 3.87127 4.54575C3.87127 4.67519 3.97618 4.78013 4.10565 4.78013H4.49553C4.69538 4.78013 4.85794 4.94273 4.85794 5.14257C4.85794 5.34242 4.69538 5.50499 4.49553 5.50499H1.83858C1.92217 5.36164 2.01133 5.22092 2.10605 5.08317C2.17939 4.97651 2.15239 4.83057 2.04574 4.75722C1.93902 4.68388 1.79314 4.71091 1.71979 4.81757C0.899935 6.00987 0.466553 7.40727 0.466553 8.85867C0.466553 10.7661 1.20938 12.5594 2.55812 13.9081C3.90689 15.2569 5.70014 15.9997 7.60758 15.9997C9.51502 15.9997 11.3083 15.2569 12.657 13.9081C14.0058 12.5594 14.7486 10.7661 14.7486 8.85867C14.7486 8.64054 14.7381 8.4166 14.7175 8.19309C14.7056 8.06428 14.5913 7.96931 14.4626 7.98134ZM2.75487 7.3502C2.91709 7.3502 3.04907 7.48218 3.04907 7.6444C3.04907 7.80662 2.91709 7.93859 2.75487 7.93859H1.87023C1.77845 7.93859 1.69514 7.99212 1.65704 8.07559L1.62954 8.13584C1.53588 8.34094 1.32969 8.47351 1.10422 8.47351H0.946311C0.967968 8.09291 1.02175 7.71743 1.10656 7.35027H2.75487V7.3502Z" fill="white" fill-opacity="0.6"/>
<path d="M15.1038 4.31257C15.0355 4.2026 14.8909 4.16891 14.7811 4.23719C14.6711 4.3055 14.6373 4.45001 14.7057 4.55998C14.8854 4.84914 14.9803 5.18271 14.9803 5.52462C14.9803 6.31891 14.4732 7.0183 13.7185 7.26496C13.6748 7.27924 13.6363 7.30605 13.6077 7.34205L13.204 7.85075C13.1858 7.87375 13.1619 7.87719 13.1493 7.87719C13.1367 7.87719 13.1128 7.87375 13.0946 7.85075L12.6909 7.34205C12.6623 7.30605 12.6238 7.27924 12.5801 7.26496C11.8101 7.0133 11.2917 6.27126 11.3194 5.4604C11.3516 4.51445 12.1171 3.73925 13.0622 3.69559C13.4151 3.67931 13.7613 3.76331 14.0643 3.93856C14.1764 4.00334 14.3198 3.96506 14.3846 3.853C14.4494 3.74096 14.4111 3.59759 14.299 3.53277C13.9181 3.31255 13.483 3.20696 13.0405 3.22733C11.8532 3.28218 10.8914 4.25604 10.8509 5.44443C10.817 6.43838 11.4369 7.35015 12.3662 7.68697L12.7274 8.1421C12.8302 8.27163 12.984 8.34591 13.1493 8.34588C13.3147 8.34588 13.4685 8.2716 13.5712 8.14207L13.9324 7.687C14.8426 7.35809 15.4491 6.49807 15.4491 5.52456C15.4491 5.09521 15.3297 4.67607 15.1038 4.31257Z" fill="white" fill-opacity="0.6"/>
<path d="M13.1493 4.34338C12.4979 4.34338 11.9679 4.87333 11.9679 5.52475C11.9679 6.17617 12.4979 6.70611 13.1493 6.70611C13.8007 6.70611 14.3307 6.17617 14.3307 5.52475C14.3307 4.87333 13.8007 4.34338 13.1493 4.34338ZM13.1493 6.23739C12.7564 6.23739 12.4367 5.91772 12.4367 5.52478C12.4367 5.13184 12.7563 4.81217 13.1493 4.81217C13.5422 4.81217 13.8619 5.13184 13.8619 5.52478C13.8619 5.91772 13.5422 6.23739 13.1493 6.23739Z" fill="white" fill-opacity="0.6"/>
<path d="M4.96734 8.70202C4.80047 8.66852 4.63003 8.65552 4.46077 8.66333C3.39285 8.71268 2.5278 9.58857 2.49136 10.6574C2.46099 11.5489 3.01528 12.3668 3.84723 12.6718L4.16333 13.0701C4.25961 13.1914 4.40365 13.261 4.55852 13.261C4.71343 13.261 4.85747 13.1914 4.95375 13.0701L5.26979 12.6718C6.08452 12.3741 6.6269 11.6025 6.6269 10.7295C6.6269 10.1592 6.38759 9.60838 5.97027 9.21841C5.87564 9.13 5.72736 9.13506 5.63898 9.2296C5.5506 9.32416 5.5556 9.47247 5.65017 9.56088C5.97771 9.86698 6.15812 10.2821 6.15812 10.7295C6.15812 11.4234 5.71511 12.0345 5.05575 12.25C5.01209 12.2642 4.97353 12.2911 4.94497 12.3271L4.58652 12.7788C4.57224 12.7967 4.54474 12.7968 4.53046 12.7788L4.17199 12.3271C4.14342 12.2911 4.10489 12.2643 4.0612 12.25C3.38857 12.0301 2.93562 11.3819 2.95981 10.6735C2.98793 9.84704 3.65673 9.16981 4.4823 9.13169C4.61349 9.12562 4.74559 9.13575 4.87503 9.16172C5.00197 9.18706 5.1255 9.10494 5.15094 8.97803C5.17638 8.85112 5.09428 8.72752 4.96734 8.70202Z" fill="white" fill-opacity="0.6"/>
<path d="M3.48322 10.7292C3.48322 11.3222 3.9656 11.8045 4.55848 11.8045C5.15137 11.8045 5.63375 11.3221 5.63375 10.7292C5.63375 10.1363 5.15137 9.65396 4.55848 9.65396C3.9656 9.65396 3.48322 10.1363 3.48322 10.7292ZM5.16503 10.7292C5.16503 11.0637 4.89296 11.3357 4.55852 11.3357C4.22407 11.3357 3.952 11.0636 3.952 10.7292C3.952 10.3948 4.22407 10.1227 4.55852 10.1227C4.89296 10.1227 5.16503 10.3948 5.16503 10.7292Z" fill="white" fill-opacity="0.6"/>
<path d="M2.18878 4.16686L2.52044 4.58484C2.61898 4.709 2.76639 4.78022 2.92492 4.78022C3.08342 4.78022 3.23083 4.709 3.32936 4.58484L3.661 4.16689C4.50882 3.85836 5.07339 3.05619 5.07339 2.14836C5.07339 1.55563 4.83723 1.00374 4.40845 0.594268C3.97994 0.185042 3.41624 -0.025212 2.82336 0.00219475C1.71409 0.0534456 0.81554 0.963274 0.777664 2.07351C0.74607 3.00047 1.32311 3.85086 2.18878 4.16686ZM1.24617 2.08948C1.27574 1.22168 1.97803 0.510547 2.84495 0.470484C2.87192 0.469234 2.89873 0.468609 2.92551 0.468609C3.36008 0.468609 3.76915 0.631956 4.08478 0.933336C4.42007 1.2535 4.6047 1.68501 4.6047 2.14839C4.6047 2.87703 4.13947 3.51866 3.44709 3.74495C3.40343 3.75923 3.36486 3.78604 3.3363 3.82204L2.9622 4.29346C2.95039 4.30836 2.93542 4.31146 2.92495 4.31146C2.91445 4.31146 2.89948 4.30833 2.88767 4.29346L2.51357 3.82204C2.48501 3.78604 2.44647 3.75923 2.40279 3.74495C1.69643 3.5141 1.22083 2.83334 1.24617 2.08948Z" fill="white" fill-opacity="0.6"/>
<path d="M2.92479 3.26035C3.53796 3.26035 4.03682 2.7615 4.03682 2.14833C4.03682 1.53517 3.53796 1.03635 2.92479 1.03635C2.31166 1.03635 1.81281 1.5352 1.81281 2.14833C1.81281 2.76153 2.31166 3.26035 2.92479 3.26035ZM2.92479 1.5051C3.27949 1.5051 3.56806 1.79367 3.56806 2.14833C3.56806 2.50303 3.27949 2.7916 2.92479 2.7916C2.5701 2.7916 2.28156 2.50303 2.28156 2.14833C2.28156 1.79367 2.5701 1.5051 2.92479 1.5051Z" fill="white" fill-opacity="0.6"/>
<path d="M7.80848 5.4719H10.2987C10.4282 5.4719 10.5331 5.36696 10.5331 5.23752C10.5331 5.10808 10.4282 5.00314 10.2987 5.00314H7.80848C7.33898 5.00314 6.95697 5.38515 6.95697 5.85469C6.95697 6.32423 7.33898 6.70624 7.80848 6.70624H8.74944C8.81769 7.25037 9.28051 7.66535 9.83758 7.66535H11.0837C11.2132 7.66535 11.3181 7.56041 11.3181 7.43097C11.3181 7.30153 11.2132 7.19659 11.0837 7.19659H9.83761C9.50254 7.19659 9.22704 6.93443 9.21038 6.5998C9.20032 6.39664 9.03307 6.23748 8.82963 6.23748H7.80848C7.59742 6.23748 7.42573 6.06576 7.42573 5.85469C7.42573 5.64362 7.59745 5.4719 7.80848 5.4719Z" fill="white" fill-opacity="0.6"/>
</svg>
